{"asset":{"generator":"3D Builder","version":"2.0"},"scene":0,"scenes":[{"nodes":[0]}],"nodes":[{"mesh":0,"matrix":[39.370079040527344,0,0,0,0,-4.6932791519793682E-6,-39.370075225830078,0,0,39.370075225830078,-4.6932791519793682E-6,0,0.051384024322032928,0.032267656177282333,-7.65165850680205E-8,1]}],"meshes":[{"primitives":[{"attributes":{"POSITION":0,"TEXCOORD_0":1},"mode":4,"indices":2,"material":0}]}],"materials":[{"pbrMetallicRoughness":{"baseColorFactor":[1,1,1,1],"metallicFactor":0,"roughnessFactor":1,"baseColorTexture":{"index":0,"texCoord":0}},"alphaMode":"OPAQUE"}],"textures":[{"source":0,"sampler":0}],"images":[{"uri":"minerDrone.png"}],"samplers":[{"magFilter":9729,"wrapS":10497,"wrapT":10497}],"accessors":[{"bufferView":0,"byteOffset":0,"count":1558,"componentType":5126,"type":"VEC3","min":[-0.01185169629752636,-0.015894800424575806,-0.00081959855742752552],"max":[0.00923116970807314,0.015882086008787155,0.011730936355888844]},{"bufferView":1,"byteOffset":0,"count":1558,"componentType":5126,"type":"VEC2"},{"bufferView":2,"byteOffset":0,"count":4692,"componentType":5125,"type":"SCALAR"}],"bufferViews":[{"buffer":0,"byteOffset":0,"byteLength":18696,"byteStride":12,"target":34962},{"buffer":0,"byteOffset":18696,"byteLength":12464,"byteStride":8,"target":34962},{"buffer":0,"byteOffset":31160,"byteLength":18768,"target":34963}],"buffers":[{"byteLength":49928,"uri":"minerDrone.bin"}]}